<?xml version="1.0" encoding="utf-8"?>
<!-- Generator: Adobe Illustrator 18.1.1, SVG Export Plug-In . SVG Version: 6.00 Build 0)  -->
<!DOCTYPE svg PUBLIC "-//W3C//DTD SVG 1.1//EN" "http://www.w3.org/Graphics/SVG/1.1/DTD/svg11.dtd">
<svg version="1.1" id="Layer_1" xmlns="http://www.w3.org/2000/svg" xmlns:xlink="http://www.w3.org/1999/xlink" x="0px" y="0px"
	 viewBox="0 0 960 540" enable-background="new 0 0 960 540" xml:space="preserve">
<g>
	<path fill="#FFFFFF" d="M519.8,268.2c-0.2-0.3-0.4-0.5-0.7-0.7c-0.3-0.2-0.7-0.2-1.1-0.2c-0.4,0-0.8,0.1-1.1,0.2
		c-0.3,0.2-0.5,0.4-0.7,0.7c-0.2,0.3-0.3,0.6-0.4,0.9c-0.1,0.4-0.1,0.7-0.1,1.1c0,0.4,0,0.7,0.1,1c0.1,0.3,0.2,0.6,0.4,0.9
		c0.2,0.3,0.4,0.5,0.7,0.7s0.7,0.2,1.1,0.2c0.4,0,0.8-0.1,1.1-0.2s0.5-0.4,0.7-0.7c0.2-0.3,0.3-0.6,0.4-0.9c0.1-0.3,0.1-0.7,0.1-1
		c0-0.4,0-0.7-0.1-1.1C520.1,268.8,520,268.5,519.8,268.2z"/>
	<polygon fill="#FFFFFF" points="465.7,268 464.6,271.2 466.8,271.2 465.7,268 	"/>
	<path fill="#FFFFFF" d="M434,263c-3.8,0-7,3.1-7,7c0,3.9,3.1,7,7,7c3.8,0,7-3.1,7-7C441,266.1,437.8,263,434,263z M432.1,274v-8.1
		l5.7,4.1L432.1,274z"/>
	<path fill="#FFFFFF" d="M398,255v30h164v-30H398z M434,278c-4.4,0-8-3.6-8-8c0-4.4,3.6-8,8-8c4.4,0,8,3.6,8,8
		C442,274.4,438.4,278,434,278z M458.5,274.5h-1.9l-1.5-5.8h0l-1.4,5.8h-1.9l-2.3-8.6h1.9l1.4,5.8h0l1.5-5.8h1.8l1.5,5.9h0l1.4-5.9
		h1.8L458.5,274.5z M467.9,274.5l-0.6-1.9h-3.2l-0.7,1.9h-1.9l3.2-8.6h1.9l3.2,8.6H467.9z M477.3,267.5h-2.6v7h-1.9v-7h-2.6v-1.6h7
		V267.5z M486.6,272.7c-0.2,0.4-0.5,0.8-0.8,1.1c-0.3,0.3-0.7,0.5-1.2,0.7s-0.9,0.2-1.5,0.2c-0.7,0-1.2-0.1-1.8-0.3
		c-0.5-0.2-1-0.5-1.3-0.9c-0.4-0.4-0.6-0.9-0.8-1.4c-0.2-0.5-0.3-1.1-0.3-1.7c0-0.6,0.1-1.2,0.3-1.8c0.2-0.5,0.5-1,0.8-1.4
		c0.4-0.4,0.8-0.7,1.3-1s1.1-0.3,1.8-0.3c0.5,0,0.9,0.1,1.3,0.2c0.4,0.1,0.8,0.3,1.1,0.6s0.6,0.6,0.8,1s0.4,0.8,0.4,1.3H485
		c0-0.2-0.1-0.4-0.2-0.6c-0.1-0.2-0.3-0.3-0.4-0.5s-0.4-0.2-0.6-0.3s-0.4-0.1-0.7-0.1c-0.4,0-0.8,0.1-1.1,0.2
		c-0.3,0.2-0.5,0.4-0.7,0.7c-0.2,0.3-0.3,0.6-0.4,0.9c-0.1,0.4-0.1,0.7-0.1,1.1c0,0.4,0,0.7,0.1,1c0.1,0.3,0.2,0.6,0.4,0.9
		c0.2,0.3,0.4,0.5,0.7,0.7s0.7,0.2,1.1,0.2c0.6,0,1-0.2,1.4-0.5c0.3-0.4,0.5-0.8,0.6-1.4h1.8C486.9,271.7,486.8,272.2,486.6,272.7z
		 M496.6,274.5h-1.9v-3.7h-3.5v3.7h-1.9v-8.6h1.9v3.3h3.5v-3.3h1.9V274.5z M511.3,274.5h-1.9l-3.6-5.7h0v5.7H504v-8.6h1.9l3.6,5.7h0
		v-5.7h1.8V274.5z M521.9,272c-0.2,0.5-0.5,1-0.8,1.4c-0.4,0.4-0.8,0.7-1.3,0.9c-0.5,0.2-1.1,0.3-1.8,0.3c-0.7,0-1.2-0.1-1.8-0.3
		c-0.5-0.2-1-0.5-1.3-0.9c-0.4-0.4-0.6-0.9-0.8-1.4c-0.2-0.5-0.3-1.1-0.3-1.7c0-0.6,0.1-1.2,0.3-1.8c0.2-0.5,0.5-1,0.8-1.4
		c0.4-0.4,0.8-0.7,1.3-1s1.1-0.3,1.8-0.3c0.7,0,1.3,0.1,1.8,0.3s1,0.6,1.3,1c0.4,0.4,0.6,0.9,0.8,1.4c0.2,0.5,0.3,1.1,0.3,1.8
		C522.2,270.9,522.1,271.5,521.9,272z M532.6,274.5h-1.9l-1.5-5.8h0l-1.4,5.8h-1.9l-2.3-8.6h1.9l1.4,5.8h0l1.5-5.8h1.8l1.5,5.9h0
		l1.4-5.9h1.8L532.6,274.5z"/>
</g>
</svg>
