<?xml version="1.0" encoding="utf-8"?>
<!-- Generator: Adobe Illustrator 18.1.1, SVG Export Plug-In . SVG Version: 6.00 Build 0)  -->
<!DOCTYPE svg PUBLIC "-//W3C//DTD SVG 1.1//EN" "http://www.w3.org/Graphics/SVG/1.1/DTD/svg11.dtd">
<svg version="1.1" id="Layer_1" xmlns="http://www.w3.org/2000/svg" xmlns:xlink="http://www.w3.org/1999/xlink" x="0px" y="0px"
	 viewBox="0 0 960 540" enable-background="new 0 0 960 540" xml:space="preserve">
<path fill="#FFFFFF" d="M536,256v28H424v-28H536 M537,255H423v30h114V255L537,255z"/>
<g>
	<path fill="#FFFFFF" d="M446.5,272.6c0.1,0.2,0.2,0.4,0.4,0.5c0.2,0.1,0.4,0.2,0.6,0.3c0.2,0.1,0.5,0.1,0.7,0.1c0.2,0,0.3,0,0.5,0
		c0.2,0,0.4-0.1,0.5-0.2s0.3-0.2,0.4-0.3c0.1-0.1,0.2-0.3,0.2-0.5c0-0.2-0.1-0.4-0.2-0.6c-0.1-0.1-0.3-0.3-0.6-0.4
		c-0.2-0.1-0.5-0.2-0.8-0.3c-0.3-0.1-0.6-0.2-0.9-0.2c-0.3-0.1-0.6-0.2-0.9-0.3c-0.3-0.1-0.6-0.3-0.8-0.5c-0.2-0.2-0.4-0.4-0.6-0.7
		c-0.1-0.3-0.2-0.6-0.2-1c0-0.4,0.1-0.8,0.3-1.1s0.4-0.6,0.7-0.8c0.3-0.2,0.6-0.4,1-0.5c0.4-0.1,0.8-0.2,1.2-0.2
		c0.4,0,0.9,0.1,1.3,0.2c0.4,0.1,0.8,0.3,1.1,0.5c0.3,0.2,0.6,0.5,0.8,0.9c0.2,0.3,0.3,0.8,0.3,1.3h-1.8c0-0.3-0.1-0.5-0.2-0.6
		c-0.1-0.2-0.2-0.3-0.4-0.4s-0.3-0.2-0.5-0.2c-0.2,0-0.4-0.1-0.6-0.1c-0.2,0-0.3,0-0.5,0c-0.2,0-0.3,0.1-0.4,0.2
		c-0.1,0.1-0.2,0.2-0.3,0.3s-0.1,0.3-0.1,0.5c0,0.2,0,0.3,0.1,0.4c0.1,0.1,0.2,0.2,0.4,0.3s0.4,0.2,0.8,0.3s0.8,0.2,1.3,0.3
		c0.2,0,0.4,0.1,0.7,0.2c0.3,0.1,0.6,0.2,0.8,0.4c0.3,0.2,0.5,0.4,0.7,0.7c0.2,0.3,0.3,0.7,0.3,1.2c0,0.4-0.1,0.8-0.2,1.1
		s-0.4,0.6-0.7,0.9c-0.3,0.2-0.7,0.4-1.1,0.6s-1,0.2-1.5,0.2c-0.5,0-0.9-0.1-1.4-0.2c-0.4-0.1-0.8-0.3-1.2-0.5
		c-0.3-0.2-0.6-0.6-0.8-0.9c-0.2-0.4-0.3-0.8-0.3-1.4h1.8C446.3,272.2,446.4,272.4,446.5,272.6z"/>
	<path fill="#FFFFFF" d="M460.5,266.2v1.6h-4.5v1.8h4.2v1.5h-4.2v2.1h4.6v1.6H454v-8.6H460.5z"/>
	<path fill="#FFFFFF" d="M469.4,266.2v1.6h-4.5v1.8h4.2v1.5h-4.2v2.1h4.6v1.6H463v-8.6H469.4z"/>
	<path fill="#FFFFFF" d="M479.2,266.2l2,5.9h0l1.9-5.9h2.7v8.6H484v-6.1h0l-2.1,6.1h-1.5l-2.1-6h0v6h-1.8v-8.6H479.2z"/>
	<path fill="#FFFFFF" d="M488.5,268.7c0.2-0.5,0.5-1,0.8-1.4c0.4-0.4,0.8-0.7,1.3-1s1.1-0.3,1.8-0.3c0.7,0,1.3,0.1,1.8,0.3
		s1,0.6,1.3,1c0.4,0.4,0.6,0.9,0.8,1.4c0.2,0.5,0.3,1.1,0.3,1.8c0,0.6-0.1,1.2-0.3,1.7c-0.2,0.5-0.5,1-0.8,1.4
		c-0.4,0.4-0.8,0.7-1.3,0.9c-0.5,0.2-1.1,0.3-1.8,0.3c-0.7,0-1.2-0.1-1.8-0.3c-0.5-0.2-1-0.5-1.3-0.9c-0.4-0.4-0.6-0.9-0.8-1.4
		c-0.2-0.5-0.3-1.1-0.3-1.7C488.2,269.9,488.3,269.3,488.5,268.7z M490.3,271.6c0.1,0.3,0.2,0.6,0.4,0.9c0.2,0.3,0.4,0.5,0.7,0.7
		s0.7,0.2,1.1,0.2c0.4,0,0.8-0.1,1.1-0.2s0.5-0.4,0.7-0.7c0.2-0.3,0.3-0.6,0.4-0.9c0.1-0.3,0.1-0.7,0.1-1c0-0.4,0-0.7-0.1-1.1
		c-0.1-0.4-0.2-0.7-0.4-0.9c-0.2-0.3-0.4-0.5-0.7-0.7c-0.3-0.2-0.7-0.2-1.1-0.2c-0.4,0-0.8,0.1-1.1,0.2c-0.3,0.2-0.5,0.4-0.7,0.7
		c-0.2,0.3-0.3,0.6-0.4,0.9c-0.1,0.4-0.1,0.7-0.1,1.1C490.1,270.9,490.2,271.2,490.3,271.6z"/>
	<path fill="#FFFFFF" d="M503.8,266.2c0.4,0,0.7,0.1,1,0.2s0.6,0.3,0.8,0.5c0.2,0.2,0.4,0.5,0.5,0.8c0.1,0.3,0.2,0.6,0.2,0.9
		c0,0.5-0.1,0.9-0.3,1.3c-0.2,0.4-0.6,0.6-1,0.8v0c0.2,0.1,0.4,0.2,0.6,0.3s0.3,0.3,0.4,0.5c0.1,0.2,0.2,0.4,0.2,0.6
		s0.1,0.4,0.1,0.6c0,0.1,0,0.3,0,0.5c0,0.2,0,0.4,0,0.6c0,0.2,0.1,0.4,0.1,0.5c0,0.2,0.1,0.3,0.2,0.4h-1.9c-0.1-0.3-0.2-0.6-0.2-1
		s-0.1-0.7-0.1-1.1c-0.1-0.4-0.2-0.8-0.4-1c-0.2-0.2-0.5-0.3-1-0.3H501v3.3h-1.9v-8.6H503.8z M503.1,270.1c0.4,0,0.8-0.1,1-0.3
		c0.2-0.2,0.3-0.5,0.3-0.9c0-0.4-0.1-0.7-0.3-0.9c-0.2-0.2-0.5-0.3-1-0.3H501v2.4H503.1z"/>
	<path fill="#FFFFFF" d="M515.4,266.2v1.6h-4.5v1.8h4.2v1.5h-4.2v2.1h4.6v1.6H509v-8.6H515.4z"/>
</g>
</svg>
