<?xml version="1.0" encoding="utf-8"?>
<!-- Generator: Adobe Illustrator 18.0.0, SVG Export Plug-In . SVG Version: 6.00 Build 0)  -->
<!DOCTYPE svg PUBLIC "-//W3C//DTD SVG 1.1//EN" "http://www.w3.org/Graphics/SVG/1.1/DTD/svg11.dtd">
<svg version="1.1" id="Layer_1" xmlns="http://www.w3.org/2000/svg" xmlns:xlink="http://www.w3.org/1999/xlink" x="0px" y="0px"
	 viewBox="0 143.2 612 505.7" enable-background="new 0 143.2 612 505.7" xml:space="preserve">
<path fill="#000000" d="M612,203.9c-21.7,10.9-47.7,17.4-71.6,19.5c26-15.2,45.6-41.2,54.3-71.6c-23.9,15.2-52.1,26-80.3,30.4
	c-21.7-23.9-54.3-39.1-91.1-39.1c-69.4,0-125.9,56.4-125.9,128c0,10.9,2.2,19.5,2.2,28.2C197.5,295.1,104.2,243,43.4,167
	C32.6,184.4,26,208.3,26,230c0,43.4,21.7,82.5,56.4,106.3c-19.5,0-39.1-6.5-56.4-15.2c0,0,0,0,0,2.2c0,62.9,43.4,112.9,99.8,125.9
	c-10.9,2.2-21.7,4.3-32.6,4.3c-8.7,0-15.2,0-23.9-2.2c15.2,49.9,62.9,86.8,117.2,89C143.2,575,89,594.6,30.4,594.6
	c-10.9,0-19.5,0-30.4-2.2c56.4,36.9,121.5,56.4,193.1,56.4c230,0,358.1-195.3,358.1-364.6c0-6.5,0-10.9,0-17.4
	C572.9,251.7,594.6,227.8,612,203.9z"/>
</svg>
