<?xml version="1.0" encoding="utf-8"?>
<!-- Generator: Adobe Illustrator 18.0.0, SVG Export Plug-In . SVG Version: 6.00 Build 0)  -->
<!DOCTYPE svg PUBLIC "-//W3C//DTD SVG 1.1//EN" "http://www.w3.org/Graphics/SVG/1.1/DTD/svg11.dtd">
<svg version="1.1" id="Layer_1" xmlns="http://www.w3.org/2000/svg" xmlns:xlink="http://www.w3.org/1999/xlink" x="0px" y="0px"
	 viewBox="301 390.8 10.5 10.5" enable-background="new 301 390.8 10.5 10.5" xml:space="preserve">
<path fill="#FFFFFF" d="M311.5,400l-2.7-2.7c0.4-0.6,0.6-1.4,0.6-2.2c0-2.4-1.9-4.2-4.2-4.2c-2.4,0-4.2,1.9-4.2,4.2
	c0,2.4,1.9,4.2,4.2,4.2c0.8,0,1.6-0.3,2.2-0.6l2.7,2.7L311.5,400z M302.4,395c0-1.5,1.3-2.8,2.8-2.8c1.5,0,2.8,1.3,2.8,2.8
	s-1.3,2.8-2.8,2.8C303.7,397.8,302.4,396.6,302.4,395z"/>
</svg>
