<?xml version="1.0" encoding="utf-8"?>
<!-- Generator: Adobe Illustrator 18.0.0, SVG Export Plug-In . SVG Version: 6.00 Build 0)  -->
<!DOCTYPE svg PUBLIC "-//W3C//DTD SVG 1.1//EN" "http://www.w3.org/Graphics/SVG/1.1/DTD/svg11.dtd">
<svg version="1.1" id="Layer_1" xmlns="http://www.w3.org/2000/svg" xmlns:xlink="http://www.w3.org/1999/xlink" x="0px" y="0px"
	 viewBox="293.2 383.4 25.5 25.5" enable-background="new 293.2 383.4 25.5 25.5" xml:space="preserve">
<path fill="#FFFFFF" d="M318.1,384v24.2h-24.2V384H318.1 M318.8,383.4h-25.5v25.5h25.5V383.4L318.8,383.4z"/>
<path fill="#FFFFFF" d="M304.5,403v-6.4h-1.7v-2.4h1.7c0,0,0-1,0-2c0-1.5,1-3,3.2-3c1,0,1.5,0.1,1.5,0.1l-0.1,2.2c0,0-0.7,0-1.5,0
	c-0.8,0-1,0.4-1,1c0,0.5,0-1.1,0,1.7h2.4l-0.1,2.3h-2.3v6.4H304.5z"/>
</svg>
