<?xml version="1.0" encoding="utf-8"?>
<!-- Generator: Adobe Illustrator 18.1.1, SVG Export Plug-In . SVG Version: 6.00 Build 0)  -->
<!DOCTYPE svg PUBLIC "-//W3C//DTD SVG 1.1//EN" "http://www.w3.org/Graphics/SVG/1.1/DTD/svg11.dtd">
<svg version="1.1" id="Layer_1" xmlns="http://www.w3.org/2000/svg" xmlns:xlink="http://www.w3.org/1999/xlink" x="0px" y="0px"
	 viewBox="0 0 960 540" enable-background="new 0 0 960 540" xml:space="preserve">
<g>
	<polygon fill="#FFFFFF" points="483.2,267.3 481.8,271.2 484.6,271.2 483.3,267.3 	"/>
	<path fill="#FFFFFF" d="M520.5,266.5h-2.6v3h2.6c0.5,0,0.9-0.1,1.2-0.4c0.3-0.2,0.4-0.6,0.4-1.2c0-0.5-0.1-0.9-0.4-1.1
		C521.4,266.6,521,266.5,520.5,266.5z"/>
	<path fill="#FFFFFF" d="M472.2,266.5h-2.6v3h2.6c0.5,0,0.9-0.1,1.2-0.4c0.3-0.2,0.4-0.6,0.4-1.2c0-0.5-0.1-0.9-0.4-1.1
		C473.1,266.6,472.7,266.5,472.2,266.5z"/>
	<path fill="#FFFFFF" d="M393.7,250.7v40h174v-40H393.7z M433,277.7v-14.3l11,7.2L433,277.7z M465.3,266.6h-3.2v8.7h-2.4v-8.7h-3.2
		v-2h8.8V266.6z M474.1,275.3c-0.1-0.3-0.2-0.7-0.2-1.2s-0.1-0.9-0.1-1.4c-0.1-0.6-0.2-1-0.5-1.2c-0.3-0.3-0.7-0.4-1.3-0.4h-2.4v4.2
		h-2.4v-10.7h5.8c0.5,0,0.9,0.1,1.3,0.2s0.7,0.4,1,0.6c0.3,0.3,0.5,0.6,0.6,0.9c0.1,0.4,0.2,0.7,0.2,1.1c0,0.6-0.1,1.2-0.4,1.6
		c-0.3,0.5-0.7,0.8-1.3,1v0c0.3,0.1,0.5,0.2,0.7,0.4c0.2,0.2,0.3,0.4,0.5,0.6c0.1,0.2,0.2,0.5,0.3,0.7c0.1,0.3,0.1,0.5,0.1,0.8
		c0,0.2,0,0.4,0,0.6c0,0.2,0,0.5,0.1,0.7c0,0.2,0.1,0.5,0.1,0.7c0.1,0.2,0.1,0.4,0.2,0.5H474.1z M486,275.3l-0.8-2.4h-4l-0.8,2.4
		H478l4-10.7h2.4l4,10.7H486z M492.6,275.3h-2.4v-10.7h2.4V275.3z M503,275.3h-7.6v-10.7h2.4v8.7h5.2V275.3z M513.1,275.3H505v-10.7
		h8v2h-5.7v2.3h5.2v1.8h-5.2v2.6h5.8V275.3z M522.4,275.3c-0.1-0.3-0.2-0.7-0.2-1.2s-0.1-0.9-0.1-1.4c-0.1-0.6-0.2-1-0.5-1.2
		c-0.3-0.3-0.7-0.4-1.3-0.4h-2.4v4.2h-2.4v-10.7h5.8c0.5,0,0.9,0.1,1.3,0.2s0.7,0.4,1,0.6c0.3,0.3,0.5,0.6,0.6,0.9
		c0.1,0.4,0.2,0.7,0.2,1.1c0,0.6-0.1,1.2-0.4,1.6c-0.3,0.5-0.7,0.8-1.3,1v0c0.3,0.1,0.5,0.2,0.7,0.4c0.2,0.2,0.3,0.4,0.5,0.6
		c0.1,0.2,0.2,0.5,0.3,0.7c0.1,0.3,0.1,0.5,0.1,0.8c0,0.2,0,0.4,0,0.6c0,0.2,0,0.5,0.1,0.7c0,0.2,0.1,0.5,0.1,0.7
		c0.1,0.2,0.1,0.4,0.2,0.5H522.4z"/>
</g>
</svg>
