<?xml version="1.0" encoding="utf-8"?>
<!-- Generator: Adobe Illustrator 18.0.0, SVG Export Plug-In . SVG Version: 6.00 Build 0)  -->
<!DOCTYPE svg PUBLIC "-//W3C//DTD SVG 1.1//EN" "http://www.w3.org/Graphics/SVG/1.1/DTD/svg11.dtd">
<svg version="1.1" id="Layer_1" xmlns="http://www.w3.org/2000/svg" xmlns:xlink="http://www.w3.org/1999/xlink" x="0px" y="0px"
	 viewBox="0 334.8 612 122.4" enable-background="new 0 334.8 612 122.4" xml:space="preserve">
<path fill="#FFFFFF" d="M306.9,399.8v54.1h-15.1V339h72v13.7h-57v33.9h53.2v13.2H306.9z"/>
<path fill="#FFFFFF" d="M387.9,339v13.7h-12.2V339H387.9z M387.9,377.2v76.7h-12.2v-76.7H387.9z"/>
<path fill="#FFFFFF" d="M416.6,339v114.9h-12.2V339H416.6z"/>
<path fill="#FFFFFF" d="M445.3,377.2v10.4c8.9-10.8,16.9-12.7,22.6-12.7c12.2,0,16.9,8,20.2,14.1c6.6-6.6,13.7-14.1,25-14.1
	c9.4,0,17.4,5.6,20.7,13.2c1.9,4.7,1.9,9.9,1.9,17.4v48h-12.2v-44.7c0-7.1,0-9.4-0.5-12.2c-2.4-8.9-10.4-9.4-13.2-9.4
	c-5.2,0-10.8,2.8-14.6,6.6c-4.2,4.2-4.2,8-4.2,17.4v42.8h-12.2v-49.4c0-2.8,0-8.5-2.8-12.2c-1.9-2.4-5.2-5.2-10.8-5.2
	c-4.7,0-9.9,1.9-14.1,5.6c-4.7,4.7-4.7,8.9-4.7,15.5v45.7h-13.2v-76.7H445.3z"/>
<path fill="#FFFFFF" d="M576.2,420c-12.2-2.8-26.8-6.1-26.8-22.1c0-14.1,11.8-22.6,28.7-22.6c14.1,0,29.7,7.1,32,25l-13.7,1.9
	c0-4.7-0.5-8.5-5.2-12.2c-4.7-3.8-10.8-4.7-14.6-4.7c-9.9,0-14.6,6.1-14.6,11.3c0,7.5,8,9.4,17.9,12.2l7.1,1.9
	c8.9,1.9,25,6.1,25,22.1c0,12.7-10.8,24-31.5,24c-8.5,0-16.9-1.9-23.1-6.1c-2.4-1.9-9.9-8-11.3-20.7l14.1-2.4c0,3.3,0,9.9,5.6,15.1
	c4.2,3.8,9.9,4.2,15.1,4.2c11.3,0,17.4-4.2,17.4-12.7c0-8.9-6.6-10.4-15.5-12.2L576.2,420z"/>
<path fill="#FFFFFF" d="M149.7,339v25.4H96v20.7h49.9v24.5H96v44.3H60.7V339H149.7L149.7,339z"/>
<path fill="#FFFFFF" d="M273,424.2c-2.8,5.6-5.6,10.8-10.8,16c-11.3,11.3-27.3,16.9-43.3,16.9c-40,0-57.9-31.1-57.9-60.3
	c-0.5-30.6,19.8-62.1,57.9-62.1c16.9,0,33.4,6.1,44.7,18.4c4.7,5.2,7.1,8.9,9.4,13.7l-29.7,15.1c-2.8-6.6-8.5-18.8-23.1-18.8
	c-8,0-12.7,3.8-15.1,6.1c-8.5,8.5-8.5,21.2-8.5,25.9c0,16.9,6.1,33,23.5,33c16.5,0,21.7-15.1,22.6-18.8L273,424.2L273,424.2z"/>
<path fill="#FFFFFF" d="M44.7,368.2H25.9c-3.3,0-5.6-2.8-5.6-6.1v-8.9c0-3.3,2.8-6.1,5.6-6.1h18.8c0.9,0,1.9,0,2.8,0.5V339H0v114.9
	h47.1v-86.2C46.6,367.8,45.7,368.2,44.7,368.2L44.7,368.2z"/>
</svg>
