<?xml version="1.0" encoding="utf-8"?>
<!-- Generator: Adobe Illustrator 18.1.1, SVG Export Plug-In . SVG Version: 6.00 Build 0)  -->
<!DOCTYPE svg PUBLIC "-//W3C//DTD SVG 1.1//EN" "http://www.w3.org/Graphics/SVG/1.1/DTD/svg11.dtd">
<svg version="1.1" id="Layer_1" xmlns="http://www.w3.org/2000/svg" xmlns:xlink="http://www.w3.org/1999/xlink" x="0px" y="0px"
	 viewBox="0 0 960 540" enable-background="new 0 0 960 540" xml:space="preserve">
<path fill="#FFFFFF" d="M499,251.2v38h-38v-38H499 M500,250.2h-40v40h40V250.2L500,250.2z"/>
<path fill="#FFFFFF" d="M491.6,262.9c-0.8,0.4-1.8,0.7-2.7,0.7c1-0.6,1.7-1.6,2.1-2.7c-0.9,0.6-2,1-3.1,1.2
	c-0.8-0.9-2.1-1.5-3.5-1.5c-2.6,0-4.8,2.1-4.8,4.9c0,0.4,0.1,0.7,0.1,1.1c-3.9-0.2-7.4-2.1-9.7-5c-0.4,0.7-0.7,1.6-0.7,2.4
	c0,1.7,0.8,3.1,2.1,4c-0.7,0-1.5-0.2-2.1-0.6c0,0,0,0,0,0.1c0,2.4,1.7,4.3,3.8,4.8c-0.4,0.1-0.8,0.2-1.2,0.2c-0.3,0-0.6,0-0.9-0.1
	c0.6,1.9,2.4,3.3,4.5,3.4c-1.7,1.3-3.7,2.1-5.9,2.1c-0.4,0-0.7,0-1.2-0.1c2.1,1.4,4.6,2.1,7.3,2.1c8.7,0,13.6-7.4,13.6-13.9
	c0-0.2,0-0.4,0-0.7C490.2,264.7,491,263.8,491.6,262.9z"/>
</svg>
